<svg width="167" height="46" viewBox="0 0 167 46" fill="none" xmlns="http://www.w3.org/2000/svg">
<path d="M20.0928 13.255C20.2015 13.0938 20.2203 13.0225 20.0928 13.255V13.255Z" fill="#7C269B"/>
<path d="M39.8662 2.72504L40.0312 2.57129L39.8662 2.72504Z" fill="#7C269B"/>
<path d="M34.736 14.1887L34.6348 14.3275C34.7023 14.275 34.7548 14.2562 34.736 14.1887Z" fill="#7C269B"/>
<path d="M17.1488 22.0413C17.0933 22.0888 17.0486 22.1476 17.0176 22.2138C17.0568 22.153 17.1007 22.0953 17.1488 22.0413Z" fill="#7C269B"/>
<path d="M14.5949 8.3988L14.6661 8.3313C14.6136 8.3613 14.5574 8.3988 14.5049 8.42505L14.5949 8.3988Z" fill="#7C269B"/>
<path d="M14.951 7.96373C15.296 7.71998 14.8235 8.18123 14.666 8.33873C15.0855 8.07584 15.4721 7.76362 15.8173 7.40873C15.866 7.24373 15.1085 7.91498 14.951 7.96373Z" fill="#7C269B"/>
<path d="M3.39746 4.55125L3.47996 4.46875L3.39746 4.55125Z" fill="#7C269B"/>
<path d="M21.0223 24.2051L20.9023 24.3551C20.9503 24.312 20.9908 24.2613 21.0223 24.2051Z" fill="#7C269B"/>
<path d="M8.05859 2.39505L8.18609 2.23755C8.08484 2.32005 8.05859 2.36505 8.05859 2.39505Z" fill="#7C269B"/>
<path d="M40.0391 2.58628L40.1103 2.53003L40.0391 2.58628Z" fill="#7C269B"/>
<path d="M26.2204 28.1426C26.1805 28.1276 26.1366 28.1276 26.0967 28.1426V28.1688L26.2204 28.1426Z" fill="#7C269B"/>
<path d="M35.2317 39.4787C35.2355 39.4691 35.2355 39.4584 35.2317 39.4487L34.9805 39.6475C35.0678 39.5967 35.1517 39.5403 35.2317 39.4787Z" fill="#7C269B"/>
<path d="M22.4628 34.24L22.6053 34.0788C22.6053 34.045 22.5603 34.0788 22.4628 34.1238L22.2903 34.2438C22.2549 34.2727 22.2158 34.2966 22.174 34.315C22.1501 34.3197 22.1254 34.318 22.1024 34.3101C22.0793 34.3022 22.0588 34.2884 22.0428 34.27L21.499 34.8138C21.5357 34.8433 21.5813 34.8594 21.6284 34.8594C21.6755 34.8594 21.7211 34.8433 21.7578 34.8138L21.9978 34.615L22.4628 34.24Z" fill="#7C269B"/>
<path d="M37.6543 37.6301V37.6414L37.658 37.6601" fill="#7C269B"/>
<path d="M39.4875 38.3035C39.0179 38.3441 38.5533 38.4295 38.1 38.5585C37.4288 38.7534 36.8925 38.9334 36.6 38.9934C38.295 38.2435 37.0313 38.7384 36.72 38.8059L36.6038 38.9334C35.6138 39.3646 35.6775 39.1846 35.2275 39.3908C35.2275 39.3908 35.2275 39.4133 35.2275 39.4246L35.295 39.3683C35.3288 39.3683 35.295 39.4133 35.2388 39.4546C35.1825 39.4958 35.1788 39.5408 34.92 39.6683L34.9763 39.6233C34.56 39.8595 33.8775 40.1932 33.585 40.3395L33.69 40.2007C33.6151 40.2647 33.5245 40.3074 33.4275 40.3245C33.3664 40.3295 33.3053 40.3147 33.2533 40.2823C33.2013 40.2499 33.1611 40.2015 33.1388 40.1445C33.075 40.0095 33.1613 39.8633 33.2175 39.7095L33.3975 39.1884C33.4763 39.0009 33.555 38.8134 33.6563 38.5885L33.975 37.9323C34.1888 37.4936 34.4063 37.0624 34.6088 36.6725C35.115 35.6901 35.505 34.9852 35.625 34.6778C35.753 34.4816 35.8611 34.2731 35.9475 34.0554C36.0525 33.7891 36.1538 33.4929 36.2513 33.193L36.3975 32.7355L36.4763 32.5031L36.57 32.2256C36.7013 31.8507 36.8438 31.4757 37.0125 31.1008C37.485 29.901 37.68 29.556 37.8338 29.3573C38.0894 29.0665 38.2959 28.7359 38.445 28.3787C38.82 27.4825 38.73 27.6288 38.5613 27.8912C38.3925 28.1537 38.1638 28.5474 38.2763 28.2324C38.445 27.8837 38.6513 27.5088 38.7563 27.1826C38.8275 27.0101 38.8838 26.8489 38.94 26.6952C38.9963 26.5414 39.0488 26.3765 39.0938 26.234C39.0697 26.3702 39.0559 26.5081 39.0525 26.6464C39.0525 26.7139 39.075 26.7139 39.1013 26.6764C39.1809 26.5402 39.2511 26.3986 39.3113 26.2527C39.435 25.5328 39.5625 24.7529 39.615 24.1905C39.615 24.0518 39.6375 23.9168 39.645 23.8156C39.6525 23.7143 39.5775 23.5494 39.435 23.4631C39.3864 23.4235 39.328 23.3977 39.266 23.3885C39.2039 23.3792 39.1406 23.3869 39.0825 23.4106C39.0071 23.4515 38.9355 23.4992 38.8688 23.5531C38.6597 23.6104 38.4466 23.6517 38.2313 23.6768C38.0663 23.6768 37.9538 23.6768 37.8563 23.6768C37.7601 23.6712 37.6637 23.6712 37.5675 23.6768C37.4306 23.6957 37.2952 23.7246 37.1625 23.7631C37.2874 23.7711 37.4126 23.7711 37.5375 23.7631C37.65 23.7631 37.7213 23.7818 37.6988 23.8306C37.4738 23.8081 37.3688 23.8606 37.3838 23.8943C37.3927 23.9072 37.4044 23.918 37.418 23.9258C37.4317 23.9335 37.4469 23.9382 37.4625 23.9393C37.508 23.9509 37.5557 23.9509 37.6013 23.9393C37.397 24.0407 37.1851 24.1259 36.9675 24.1943C36.6019 24.3159 36.249 24.4729 35.9138 24.663C34.9013 25.3004 33.645 26.0728 32.58 26.7739C32.0475 27.1226 31.575 27.4451 31.2338 27.7L31.11 27.7938C31.0783 27.8166 31.0482 27.8417 31.02 27.8687C30.9812 27.8996 30.9448 27.9335 30.9113 27.97C30.8664 28.0088 30.836 28.0617 30.825 28.12L30.7875 28.0637C30.735 28.4387 31.23 28.4387 30.6788 29.0086L30.1838 29.2148L29.61 29.7772C29.13 30.0172 29.2988 29.8035 29.2763 29.7772C28.7116 30.2586 28.1167 30.7032 27.495 31.1083L26.9888 31.4457L26.73 31.6182L26.6063 31.6969L26.5275 31.7494C26.3175 31.8807 26.115 32.0044 25.9238 32.1244C26.1047 32.1729 26.2915 32.1956 26.4788 32.1919C26.739 32.1903 26.9982 32.1589 27.2513 32.0981L27.0225 32.2219L26.805 32.3344L26.3663 32.5518L25.5525 32.9568C25.1646 33.1175 24.8248 33.3758 24.5663 33.7067C24.4612 33.6925 24.3596 33.6594 24.2663 33.6092C24.0636 33.6287 23.8684 33.6955 23.6963 33.8041C23.5382 33.9218 23.3958 34.0591 23.2725 34.2128C23.0063 34.524 22.755 34.8765 22.5675 34.9215C22.5224 34.904 22.4819 34.8763 22.4494 34.8405C22.4168 34.8047 22.3931 34.7618 22.38 34.7153L23.01 34.2653C22.8038 34.3253 22.71 34.3216 22.6575 34.2653C22.605 34.2091 22.5975 34.1453 22.6313 34.0104L22.6088 34.0366C22.6088 34.0366 22.6088 34.0779 22.5563 34.1266L22.4663 34.1978C22.2638 34.4303 22.0313 34.6703 21.7913 34.8952C21.6713 35.0077 21.5475 35.1127 21.435 35.2102L21.2663 35.3414C21.2406 35.3615 21.2089 35.3724 21.1763 35.3724C21.1436 35.3724 21.112 35.3615 21.0863 35.3414C21.0543 35.3095 21.0337 35.2681 21.0277 35.2234C21.0216 35.1787 21.0303 35.1332 21.0525 35.094C21.0938 35.0227 21.1275 34.959 21.1575 34.899C21.2213 34.7752 21.2775 34.659 21.3638 34.524C21.6935 33.9812 22.07 33.4681 22.4888 32.9905C22.3125 33.0992 22.1475 33.193 21.99 33.2717L22.71 32.3568L22.8188 32.2256L23.2538 31.9369L23.1975 32.0231C23.0063 32.3381 22.785 32.743 22.575 33.148C22.47 33.3355 22.365 33.5229 22.2675 33.7142L22.1175 33.9841L22.0425 34.1153C22.0276 34.1354 22.0195 34.1597 22.0195 34.1847C22.0195 34.2097 22.0276 34.234 22.0425 34.2541L22.3688 33.9204C22.3489 33.9013 22.3362 33.876 22.3328 33.8487C22.3294 33.8214 22.3355 33.7938 22.35 33.7704L22.41 33.6504L22.5038 33.4292C22.5696 33.2678 22.6513 33.1134 22.7475 32.968C22.8488 32.848 23.0925 32.5743 23.3325 32.3419C23.5149 32.1508 23.7173 31.9798 23.9363 31.8319C23.8058 31.9205 23.6706 32.0019 23.5313 32.0756L23.7938 31.6182C23.9671 31.3161 24.1561 31.0232 24.36 30.7408C24.4613 30.6059 24.5738 30.4671 24.7013 30.3134L24.9075 30.0809L25.02 29.9609L25.3688 29.4548L25.0875 29.7022C25.4625 28.9523 25.8375 28.2249 26.0963 28.1275C26.7563 27.0701 27.4463 26.009 28.11 25.0566C28.44 24.5805 28.7663 24.1305 29.0738 23.7256C29.2275 23.5231 29.3775 23.3281 29.5238 23.1482L29.6325 23.0132L29.685 22.9495L29.775 22.8257L30.1238 22.3533C30.1575 22.1283 30.1875 21.9109 30.2063 21.7046C30.4575 21.3072 30.87 20.8198 31.2188 20.3473C31.5675 19.8749 31.8375 19.4475 31.7138 19.29L32.5875 17.6177C32.9288 17.0665 33.1425 16.6541 33.3863 16.2154C33.699 15.6584 34.046 15.1212 34.425 14.6069L34.6275 14.3332L34.575 14.3744C36.3075 11.7498 34.0763 14.7494 36.075 11.7236C36.5588 11.1012 36.5213 11.0037 36.45 10.9099C36.3788 10.8162 36.3075 10.73 36.765 10.0251L38.5988 7.73039L38.7863 7.45293L38.9138 7.23546L39.0338 7.03674C39.0675 6.973 39.1125 6.90176 39.1275 6.86426C39.1932 6.71501 39.2508 6.56231 39.3 6.40683L39.3225 6.31684C39.3243 6.29563 39.3243 6.27431 39.3225 6.2531C39.3266 6.21823 39.3266 6.18299 39.3225 6.14812C39.3106 6.08742 39.2917 6.02829 39.2663 5.97189C39.2465 5.92087 39.2158 5.8748 39.1763 5.83691C39.1357 5.78892 39.1063 5.7326 39.09 5.67194C39.0379 5.48006 39.0289 5.27902 39.0638 5.08327C39.2324 4.671 39.4462 4.27867 39.7013 3.91344C39.914 3.59234 40.1849 3.31384 40.5 3.09231C40.3301 3.2127 40.1507 3.31928 39.9638 3.41101C39.9496 3.4172 39.9342 3.4204 39.9188 3.4204C39.9033 3.4204 39.888 3.4172 39.8738 3.41101C39.8264 3.38488 39.7761 3.36473 39.7238 3.35102C39.8214 3.15323 39.9671 2.98307 40.1475 2.85609C40.2075 2.60488 40.1475 2.63862 40.0538 2.68362C39.96 2.72861 39.8813 2.81485 39.8588 2.70611C39.705 2.85234 39.525 3.03232 39.3938 3.14855C39.2625 3.26478 39.1763 3.32852 39.1838 3.28353L39.0675 3.51975C39.0645 3.44632 39.0734 3.37288 39.0938 3.30228C39.0938 3.26103 39.1163 3.21604 39.1238 3.16355C39.1122 3.10976 39.09 3.05882 39.0584 3.01375C39.0269 2.96867 38.9866 2.93037 38.94 2.90108C38.8275 2.81485 38.6813 2.7661 38.6213 2.7961C38.5613 2.8261 38.5163 2.85984 38.4675 2.88984C38.3844 2.94847 38.2936 2.99517 38.1975 3.02857L38.34 2.85234C38.1713 2.96108 37.9988 3.07731 37.8188 3.20104L37.9913 2.94233L37.6575 3.1373L37.2825 3.35477L37.3125 3.40351C37.215 3.471 37.0013 3.60598 36.7913 3.72597C36.6868 3.78791 36.5777 3.84181 36.465 3.88719C36.3929 3.92643 36.3099 3.94092 36.2288 3.92844L36.4163 3.66223C36.3832 3.63393 36.345 3.61228 36.3038 3.59848C36.2452 3.59111 36.186 3.59111 36.1275 3.59848C36.0586 3.60982 35.9908 3.62739 35.925 3.65098C35.8393 3.67461 35.7573 3.70994 35.6813 3.75596C35.5838 3.80845 35.4825 3.86845 35.3775 3.93219L35.22 4.03342L35.1375 4.08966L35.04 4.16465L34.635 4.49086C34.5509 4.55996 34.4707 4.63382 34.395 4.71207L34.1475 4.98578C32.985 6.23061 31.8038 7.54667 30.585 8.79524L31.2113 7.88037C30.405 8.41654 30.5738 8.95646 29.5088 9.89008L29.6738 9.38015C28.9875 10.2988 28.68 10.5837 28.4213 10.745C28.1325 10.8741 27.8563 11.0297 27.5963 11.2099C27.6717 11.2846 27.7383 11.3676 27.795 11.4574L26.4338 12.7359C25.6838 13.4258 25.4325 13.5308 25.4138 13.3958C25.4811 13.1144 25.5965 12.8468 25.755 12.6047L24.63 14.1045C24.54 14.0595 24.45 14.022 24.3525 13.9845C24.1224 14.3963 23.8171 14.7612 23.4525 15.0606C22.9441 15.4883 22.4771 15.9628 22.0575 16.4779C21.96 16.5004 21.9938 16.4029 21.99 16.3616C21.9863 16.3204 21.99 16.3354 21.9225 16.3616C21.8873 16.3847 21.8535 16.4097 21.8213 16.4366L21.7463 16.5004L21.6975 16.5379L20.6475 18.1464L21.3075 17.2315L21.4988 17.6065C20.9025 18.6526 20.3738 18.6901 19.86 19.3575L20.175 18.8663C19.2938 19.8974 19.1213 19.8224 18.5213 20.3023C18.7425 20.1861 19.0763 20.0099 18.7275 20.4373C18.4613 20.741 18.4725 20.4898 18.1763 20.726C18.3 20.9885 17.7188 21.7796 17.01 22.312C16.9995 22.2911 16.994 22.268 16.994 22.2446C16.994 22.2211 16.9995 22.198 17.01 22.1771C16.8984 22.4052 16.7307 22.6014 16.5225 22.747L16.47 22.372L16.1475 23.1032C15.9414 23.2716 15.7563 23.4642 15.5963 23.6768C15.57 23.7031 15.57 23.7068 15.5663 23.7143C15.5634 23.7206 15.5592 23.7261 15.5541 23.7307C15.5489 23.7352 15.5428 23.7386 15.5363 23.7406C15.5363 23.7406 15.495 23.7406 15.4688 23.6881V23.5906L14.82 24.1418L14.8875 23.7293C14.8163 24.0368 14.745 24.063 14.7075 24.0743C14.67 24.0855 14.6288 24.1043 14.4638 24.5692C14.4975 24.3705 14.37 24.5692 14.265 24.678C14.16 24.7867 14.1338 24.7979 14.5013 24.0893C14.4263 24.1418 14.16 24.558 13.83 25.0004C13.6725 25.2179 13.5038 25.4353 13.3875 25.5703C13.2713 25.7053 13.2 25.7503 13.2788 25.5928C13.845 24.7342 14.0288 24.468 14.0475 24.4042C14.0663 24.3405 14.0475 24.4042 14.0475 24.4042C14.0475 24.4042 14.0213 24.4417 13.995 24.4305C13.9688 24.4192 13.995 24.3892 13.995 24.363L14.0663 24.258C13.9202 24.4447 13.7499 24.6111 13.56 24.7529C13.4475 24.8167 13.3913 24.7942 13.4138 24.6442C13.4135 24.5786 13.4262 24.5136 13.4513 24.453C13.6874 24.2337 13.908 23.9982 14.1113 23.7481C14.1706 23.669 14.2034 23.5732 14.205 23.4744C14.2156 23.3447 14.2486 23.2178 14.3025 23.0994C14.3337 23.0247 14.374 22.9542 14.4225 22.8895C14.4471 22.8592 14.4748 22.8316 14.505 22.807C14.505 22.807 14.5388 22.7545 14.5613 22.7282L14.6325 22.6307L14.775 22.4358L14.94 21.7271C15.5785 20.935 16.134 20.0794 16.5975 19.1737L17.0288 18.4239L17.2538 18.0489L17.5838 17.5052C18.1313 16.5979 18.7088 15.698 19.3538 14.7644C19.7625 13.8795 19.9838 13.4446 20.1038 13.2421C19.9664 13.4668 19.7791 13.6567 19.5563 13.797C19.9125 13.2871 20.3475 12.5372 20.73 11.9223C21.1125 11.3074 21.4575 10.7974 21.66 10.7262L21.555 10.9624C21.7425 10.9174 22.17 10.1263 22.68 9.20393C23.1724 8.24217 23.7339 7.31738 24.36 6.43683L23.31 7.58041L23.6175 7.08173L23.6925 6.958L23.7525 6.84552L23.8688 6.62805C23.9369 6.50825 23.9946 6.38281 24.0413 6.2531L24.1763 5.9044C24.1763 5.97939 24.1763 6.06188 24.1763 6.14062C24.1992 5.90997 24.1992 5.67762 24.1763 5.44697C24.1464 5.27966 24.1276 5.11057 24.12 4.94079C24.1017 4.7978 24.0929 4.65376 24.0938 4.5096V4.29963V4.10841C24.0938 3.97718 24.12 3.8422 24.1388 3.73346L24.195 3.38476C24.2363 3.1598 24.2738 2.94233 24.3113 2.72486C24.3113 2.67987 24.2775 2.57488 24.18 2.47365C24.0991 2.38307 23.9992 2.31139 23.8875 2.26368C23.8125 2.24118 23.7938 2.26368 23.7488 2.26368L23.6475 2.27118C23.4675 2.30117 23.2725 2.33117 23.0813 2.38366C22.9838 2.40616 22.8413 2.44365 22.7063 2.48489C22.557 2.5302 22.4106 2.58403 22.2675 2.64612C22.0875 2.71736 21.8925 2.80735 21.6863 2.91233L21.3338 3.1073C21.2063 3.18229 21.075 3.26103 20.94 3.34727C21.1763 3.11105 21.2363 3.03606 21.2025 3.03981C21.085 3.08958 20.9741 3.15382 20.8725 3.23104C20.729 3.33126 20.5757 3.41668 20.415 3.486C20.28 3.54599 20.2238 3.51975 20.34 3.30228C20.3206 3.28311 20.2977 3.26784 20.2725 3.25728H20.235H20.1825C20.0973 3.28394 20.0145 3.3178 19.935 3.35852C19.1742 3.93549 18.4664 4.5792 17.82 5.28199C17.0888 6.03188 16.4063 6.78178 15.81 7.38169C15.7794 7.45373 15.7362 7.51975 15.6825 7.57666L13.3988 9.48889C13.7513 9.03895 13.8338 8.92272 13.7738 9.00146C13.7138 9.0802 13.4775 9.33141 13.2638 9.58262C12.8363 10.0888 12.42 10.595 13.0238 9.81884C12.2738 10.415 11.46 11.0674 10.6238 11.7573C10.14 12.1548 9.64125 12.5597 9.12375 12.9796C8.79 13.2421 8.4675 13.5271 8.115 13.8495C7.7625 14.172 7.365 14.5207 6.99 14.8506L6.85125 14.9706C6.80625 15.0081 6.765 15.0681 6.70125 15.0493C6.68636 15.0455 6.67254 15.0383 6.66084 15.0283C6.64914 15.0184 6.63987 15.0059 6.63372 14.9918C6.62758 14.9777 6.62473 14.9624 6.62538 14.947C6.62604 14.9316 6.63018 14.9166 6.6375 14.9031L6.7125 14.7269C6.81375 14.4907 6.9225 14.2432 7.0425 13.9995L6.79125 14.3219C6.91125 14.0482 6.96 13.827 7.06125 13.5721C7.14608 13.3167 7.27281 13.0772 7.43625 12.8634C7.50391 12.8011 7.5512 12.7198 7.57194 12.6301C7.59268 12.5405 7.5859 12.4467 7.5525 12.361C7.50871 12.2088 7.49848 12.0489 7.5225 11.8923V11.8548C7.51926 11.8312 7.51926 11.8072 7.5225 11.7836C7.54125 11.7123 7.56375 11.6411 7.58625 11.5736C7.63125 11.4349 7.68375 11.3074 7.73625 11.1986C7.78875 11.0899 7.84125 10.9662 7.8975 10.8649L8.085 10.52C8.35875 10.0213 8.5425 9.81509 8.3775 10.2013C8.7525 9.22643 8.9775 8.30406 9.255 7.37419C9.39375 6.90551 9.54375 6.42933 9.735 5.90815L9.885 5.48071C9.92625 5.35323 9.9825 5.2145 10.02 5.08327L10.1325 4.70832L10.2225 4.33338C10.3051 4.18458 10.3597 4.02192 10.3838 3.85345C10.4167 3.66663 10.4293 3.4768 10.4213 3.28728C10.417 3.09923 10.4032 2.91152 10.38 2.72486C10.38 2.55238 10.3463 2.38741 10.3313 2.21118C10.3342 2.16628 10.3265 2.12131 10.3088 2.07995C10.2784 2.01548 10.235 1.95802 10.1813 1.91123C10.1327 1.86068 10.0745 1.82037 10.0101 1.79268C9.94566 1.76499 9.87636 1.75048 9.80625 1.75C9.7684 1.75907 9.73185 1.77293 9.6975 1.79124L9.57375 1.84749L9.3375 1.95247L8.91375 2.1062C8.3925 2.33117 8.055 2.4474 8.05875 2.36116L8.025 2.40241C6.69 2.83734 4.59 3.64348 4.65 3.8347C4.43625 4.00343 4.2 4.18715 3.96 4.34838C3.84655 4.42381 3.72886 4.49267 3.6075 4.5546C3.55125 4.58084 3.49875 4.60709 3.44625 4.62584C3.39375 4.64458 3.345 4.67083 3.2925 4.62584L3.3975 4.5321C3.33897 4.57684 3.27099 4.60762 3.19875 4.62209C3.16318 4.632 3.12557 4.632 3.09 4.62209C3.03038 4.59814 2.97474 4.56527 2.925 4.5246C2.79612 4.40137 2.68954 4.25675 2.61 4.09716C2.32628 3.55255 2.10849 2.97607 1.96125 2.37991C1.43275 2.88683 1.00409 3.4884 0.6975 4.1534C0.62 5.11077 0.5825 6.15187 0.585 7.27671V8.13908V8.58152V8.69025C0.587145 8.71594 0.596217 8.74056 0.61125 8.76149C0.638332 8.81016 0.671058 8.85547 0.70875 8.89647C0.794752 8.98768 0.890299 9.06938 0.99375 9.14019C1.06628 9.19032 1.14138 9.23663 1.21875 9.27892L1.41 9.39515C1.47375 9.4364 1.55625 9.46639 1.63125 9.50763C1.75609 9.51657 1.88141 9.51657 2.00625 9.50763C2.15459 9.50249 2.30242 9.48746 2.44875 9.46264C2.53126 9.44982 2.61272 9.43102 2.6925 9.4064C2.77875 9.3839 2.8575 9.36516 2.9475 9.33516C3.13854 9.26539 3.32301 9.17881 3.49875 9.07645C4.24875 8.60027 5.0325 8.08659 5.79375 7.59916L6.91875 6.84927L6.99 6.80427H7.0125L6.95625 6.83802L6.84 6.90926L6.61125 7.04424L5.7375 7.56166L4.92 8.0416C4.8675 8.07159 4.90125 8.0416 4.92 8.0416H4.9575C4.9673 8.04278 4.97662 8.04652 4.98452 8.05244C4.99242 8.05836 4.99862 8.06626 5.0025 8.07534C5.00429 8.10406 5.00429 8.13286 5.0025 8.16158C4.97625 8.28531 4.9425 8.42779 4.8975 8.59277C4.785 8.77524 4.68375 8.92897 4.59375 9.05395L4.46625 9.21518L4.44 9.24517C4.42318 9.27423 4.40816 9.30428 4.395 9.33516L4.335 9.47014L4.09125 10.0026L3.97125 10.2688L3.88875 10.46L3.7725 10.73L3.3375 11.7573L2.46 13.8345L0.6225 18.1389L0.2025 19.215L0.11625 19.4962L0.075 19.6349L0.05625 19.7062V19.7624L0 20.2086C0 20.3361 0 20.4486 0 20.5835V20.7598C0 20.8123 -2.79397e-08 20.8535 0.03 20.9022C0.0580002 21.0759 0.101936 21.2466 0.16125 21.4122L0.24375 21.6221L0.285 21.7271C0.285 21.7571 0.315 21.7796 0.32625 21.8096L0.5025 22.1208C0.55875 22.2183 0.615 22.2783 0.67125 22.3608C0.7275 22.4433 0.78375 22.522 0.83625 22.5783C0.892809 22.643 0.955612 22.702 1.02375 22.7545C1.12624 22.8399 1.23676 22.9153 1.35375 22.9794C1.40241 23.0074 1.45396 23.0301 1.5075 23.0469L1.6425 23.0844L1.91625 23.1594C1.96916 23.1744 2.02304 23.1856 2.0775 23.1932L2.2575 23.2157L2.4375 23.2419H2.65875C2.82433 23.2474 2.99005 23.2373 3.15375 23.2119L3.435 23.1707C3.53625 23.1444 3.65625 23.1032 3.76875 23.0694L3.9375 23.0169C3.99375 22.9944 4.06875 22.9495 4.1325 22.9195L4.335 22.8182L4.43625 22.7657L4.5525 22.6795C4.8525 22.4808 5.20875 22.1433 5.5425 21.8621L12.8213 15.5405C13.3088 15.1168 13.155 15.2443 13.2188 15.1881L13.3013 15.1018L13.4925 14.9144C13.6438 14.6126 13.8141 14.3208 14.0025 14.0407V14.127C14.0025 14.2807 14.0025 14.3407 14.0813 14.2919C14.2322 14.1702 14.3739 14.0374 14.505 13.8945C14.5425 13.8308 14.6363 13.827 14.64 13.8608V13.9207C14.6068 13.9905 14.5692 14.0582 14.5275 14.1232C14.3427 14.3876 14.1317 14.6325 13.8975 14.8544L14.5725 14.2919C14.4042 14.5177 14.2047 14.7184 13.98 14.8881C13.89 15.0643 13.8 15.2631 13.6913 15.4693L13.65 15.5518L13.6275 15.593L13.4775 15.8555L12.795 17.0515L11.4263 19.44L9.45 22.8632L6.9675 27.1376C5.3375 29.9472 3.71875 32.7268 2.11125 35.4764L1.965 35.7801L1.89375 35.9301C1.87842 35.9679 1.86589 36.0067 1.85625 36.0463L1.7175 36.4888L1.6575 36.8337C1.63875 36.9424 1.60875 37.0774 1.60125 37.1637L1.55625 37.7261C1.55625 37.8911 1.55625 38.026 1.55625 38.176C1.55625 38.4947 1.55625 38.6972 1.55625 38.9259C1.55625 39.1546 1.55625 39.3496 1.55625 39.5558C1.55625 39.762 1.55625 39.9533 1.53375 40.1182C1.53375 40.1482 1.6125 40.2795 1.75125 40.3919C1.89 40.5044 2.0325 40.5682 2.055 40.5494L2.27625 40.5082C2.43006 40.4828 2.58542 40.4677 2.74125 40.4632H2.98875C3.075 40.4632 3.165 40.4632 3.2475 40.4632C3.25943 40.5079 3.28748 40.5466 3.32625 40.5719C3.3921 40.5986 3.46166 40.6151 3.5325 40.6207C3.61125 40.6207 3.70125 40.6207 3.795 40.6207C3.88875 40.6207 4.0425 40.5907 4.17 40.5757L4.3575 40.5494C4.4325 40.5494 4.515 40.5044 4.59 40.4819C4.75047 40.449 4.90653 40.3974 5.055 40.3282L5.2875 40.227L5.34 40.2045L5.41125 40.1557L5.5425 40.062C5.6925 39.9795 5.88 39.7995 5.9775 39.7395C8.79 36.6575 11.3025 34.0029 13.7663 31.4645C14.9438 30.2272 16.1475 28.9898 17.37 27.7675L18.87 26.2677L19.8563 25.2891L19.7775 25.4091L20.9588 24.1418C21.0263 24.1043 21.0563 24.123 21.0338 24.1793C21.7772 23.2615 22.5883 22.4004 23.46 21.6034C23.94 21.1535 24.4313 20.6998 24.9188 20.2573L25.0988 20.0924L25.1438 20.0511L25.1738 20.0286L25.23 20.0061L25.3238 19.9724V20.0174C25.5188 19.8337 25.6988 19.6424 25.9538 19.3387L26.925 18.2139L27.2325 17.8652C27.2441 17.8525 27.2592 17.8436 27.2759 17.8396C27.2926 17.8356 27.3102 17.8367 27.3263 17.8427C27.3525 17.8427 27.345 17.8689 27.3263 17.8764L27.2963 17.9477C27.255 18.0452 27.1913 18.1764 27.1088 18.3226C26.9475 18.6301 26.7 19.0725 26.415 19.4924C26.2763 19.7099 26.1263 19.9274 25.9838 20.1186C25.9125 20.2161 25.845 20.3061 25.7775 20.3848L25.7288 20.4448C25.7169 20.4571 25.7068 20.471 25.6988 20.4861L25.56 20.7035L25.035 21.6034C23.8725 23.2532 22.7475 25.0454 21.6263 26.9201L15.435 37.3174L15.2588 37.6923L15.2138 37.7823L15.1913 37.8573L15.15 38.0035L15.0638 38.2997L15.0338 38.536C14.9969 38.8055 14.9869 39.0781 15.0038 39.3496C15.0038 39.4621 15.0338 39.5521 15.045 39.6533C15.0563 39.7545 15.0675 39.8633 15.0863 39.942L15.195 40.4107L15.3075 40.7856L15.36 40.9619C15.36 40.9881 15.36 41.0069 15.3938 41.0443C15.436 41.1095 15.4837 41.1709 15.5363 41.2281C15.647 41.3468 15.7731 41.4502 15.9113 41.5355L16.0463 41.6105C16.1466 41.6651 16.243 41.7265 16.335 41.7942C16.335 41.7942 16.335 41.828 16.3613 41.8467L16.44 41.9105C16.5183 41.9628 16.5997 42.0104 16.6838 42.053C17.068 42.2253 17.4928 42.2863 17.91 42.2292C18.118 42.209 18.3223 42.1611 18.5175 42.0867C18.8377 41.9705 19.1376 41.8048 19.4063 41.5955L21.6563 39.9608L26.5013 36.4138L28.845 34.6965L30.0225 33.8154L32.1563 32.2106L33.045 31.5357L33.42 31.2545V31.232C33.4344 31.2016 33.447 31.1703 33.4575 31.1383C33.4341 31.0842 33.3949 31.0385 33.345 31.007C33.3163 30.9916 33.2862 30.9791 33.255 30.9695H33.2025H33.1763L33.1275 30.992L33.0263 31.037L33.1463 30.9471L33.1725 30.9246L33.2138 30.8871L33.3038 30.8083C33.3638 30.7558 33.4238 30.7071 33.4838 30.6621C33.6 30.5684 33.7125 30.4896 33.8138 30.4221C33.915 30.3546 34.05 30.2759 34.1475 30.2197L34.29 30.1372L34.3613 30.0922C34.38 30.0922 34.4063 30.0547 34.44 30.0922C34.4543 30.1008 34.4646 30.1146 34.4688 30.1307C34.473 30.1468 34.4708 30.1639 34.4625 30.1784L34.4325 30.2721C34.4116 30.3257 34.3953 30.3809 34.3838 30.4371C34.361 30.5506 34.3521 30.6665 34.3575 30.7821C34.328 30.7861 34.299 30.7937 34.2713 30.8046C34.1888 30.9096 34.4213 30.7746 34.3875 31.0483C34.3749 31.14 34.3496 31.2296 34.3125 31.3145C34.2919 31.3756 34.2655 31.4346 34.2338 31.4907L34.185 31.5882L34.155 31.637V31.6594L34.1138 31.7569C34.0013 32.0156 33.8738 32.2931 33.7388 32.5931L33.525 33.0542C33.4988 33.103 33.42 33.2867 33.36 33.4292L33.165 33.8866C32.5913 35.1914 31.9425 36.6762 31.2075 38.3597L31.1625 38.386C31.1063 38.536 31.08 38.6334 31.0538 38.7272C31.0307 38.841 31.0019 38.9537 30.9675 39.0646C30.9405 39.1481 30.9192 39.2333 30.9038 39.3196L30.8138 39.6945C30.8475 39.5408 30.8963 39.3758 30.9338 39.2184C30.9713 39.0609 31.0688 38.8659 31.1325 38.6934L31.755 37.3511C31.6388 37.7261 31.5225 38.101 31.4288 38.476C31.3825 38.6626 31.3561 38.8537 31.35 39.0459C31.3445 39.1333 31.3445 39.221 31.35 39.3083L31.3725 39.5483V39.672V39.7808L31.41 40.0095C31.4363 40.1632 31.4738 40.2907 31.5 40.4519C31.5026 40.5926 31.4634 40.7309 31.3875 40.8494L31.4588 41.0781L31.5338 41.2656L31.6088 41.4493C31.639 41.5359 31.6891 41.6142 31.755 41.678C31.8428 41.7773 31.9468 41.8609 32.0625 41.9255C32.1003 41.9503 32.1422 41.9681 32.1863 41.978C32.2537 41.9576 32.32 41.9338 32.385 41.9067L33.1913 41.6105L34.0763 41.453C34.4471 41.282 34.8022 41.0787 35.1375 40.8456C35.8163 40.4879 36.5386 40.2195 37.2863 40.047C36.3338 40.1107 38.5125 39.4058 38.1788 39.3683C38.3063 39.3683 38.5988 39.3046 38.8425 39.2709L39.4463 39.0234C39.4463 39.0234 39.8625 38.8059 39.9413 38.6484C40.02 38.491 39.4875 38.3035 39.4875 38.3035Z" fill="#7C269B"/>
<path d="M31.4141 40.8738V40.8325C31.2791 40.945 31.3428 40.9638 31.4141 40.8738Z" fill="#7C269B"/>
<path d="M25.8673 32.2L25.9123 32.17C25.8489 32.1521 25.7874 32.1283 25.7285 32.0988C25.7709 32.1375 25.8174 32.1715 25.8673 32.2Z" fill="#7C269B"/>
<path d="M39.1875 27.1375C39.2906 26.8493 39.3586 26.5496 39.39 26.245C39.39 26.1475 39.3675 26.1925 39.3262 26.2863C39.2662 26.62 39.2138 26.92 39.1875 27.1375Z" fill="#7C269B"/>
<path d="M36.7046 38.83L36.8434 38.6763C36.5921 38.8263 36.5996 38.8525 36.7046 38.83Z" fill="#7C269B"/>
<path d="M51.358 5.909C53.0113 5.909 54.2807 6.20233 55.166 6.789C56.0513 7.365 56.494 8.31433 56.494 9.637C56.494 10.9703 56.046 11.9357 55.15 12.533C54.254 13.1197 52.974 13.413 51.31 13.413H50.526V17.125H48.03V6.197C48.574 6.09033 49.15 6.01567 49.758 5.973C50.366 5.93033 50.8993 5.909 51.358 5.909ZM51.518 8.037C51.3367 8.037 51.1553 8.04233 50.974 8.053C50.8033 8.06367 50.654 8.07433 50.526 8.085V11.285H51.31C52.174 11.285 52.8247 11.1677 53.262 10.933C53.6993 10.6983 53.918 10.261 53.918 9.621C53.918 9.31167 53.8593 9.05567 53.742 8.853C53.6353 8.65033 53.4753 8.49033 53.262 8.373C53.0593 8.245 52.8087 8.15967 52.51 8.117C52.2113 8.06367 51.8807 8.037 51.518 8.037ZM65.3509 16.837C64.9455 16.9543 64.4229 17.061 63.7829 17.157C63.1429 17.2637 62.4709 17.317 61.7669 17.317C61.0522 17.317 60.4549 17.221 59.9749 17.029C59.5055 16.837 59.1322 16.5703 58.8549 16.229C58.5775 15.877 58.3802 15.461 58.2629 14.981C58.1455 14.501 58.0869 13.973 58.0869 13.397V8.709H60.4709V13.109C60.4709 13.877 60.5722 14.4317 60.7749 14.773C60.9775 15.1143 61.3562 15.285 61.9109 15.285C62.0815 15.285 62.2629 15.2797 62.4549 15.269C62.6469 15.2477 62.8175 15.2263 62.9669 15.205V8.709H65.3509V16.837ZM72.6607 10.821C72.4474 10.7677 72.1967 10.7143 71.9087 10.661C71.6207 10.597 71.3114 10.565 70.9807 10.565C70.8314 10.565 70.6501 10.581 70.4367 10.613C70.2341 10.6343 70.0794 10.661 69.9727 10.693V17.125H67.5887V9.157C68.0154 9.00767 68.5167 8.869 69.0927 8.741C69.6794 8.60233 70.3301 8.533 71.0447 8.533C71.1727 8.533 71.3274 8.54367 71.5087 8.565C71.6901 8.57567 71.8714 8.597 72.0527 8.629C72.2341 8.65033 72.4154 8.68233 72.5967 8.725C72.7781 8.757 72.9327 8.79967 73.0607 8.853L72.6607 10.821ZM79.7307 12.981C79.7307 12.245 79.5654 11.6583 79.2347 11.221C78.9041 10.773 78.4134 10.549 77.7627 10.549C77.5494 10.549 77.3521 10.5597 77.1707 10.581C76.9894 10.5917 76.8401 10.6077 76.7227 10.629V14.933C76.8721 15.029 77.0641 15.109 77.2987 15.173C77.5441 15.237 77.7894 15.269 78.0347 15.269C79.1654 15.269 79.7307 14.5063 79.7307 12.981ZM82.1627 12.917C82.1627 13.5677 82.0827 14.1597 81.9227 14.693C81.7627 15.2263 81.5281 15.685 81.2187 16.069C80.9094 16.453 80.5254 16.7517 80.0667 16.965C79.6081 17.1783 79.0801 17.285 78.4827 17.285C78.1521 17.285 77.8427 17.253 77.5547 17.189C77.2667 17.125 76.9894 17.0343 76.7227 16.917V20.085H74.3387V8.997C74.5521 8.933 74.7974 8.87433 75.0747 8.821C75.3521 8.757 75.6401 8.70367 75.9387 8.661C76.2481 8.61833 76.5574 8.58633 76.8667 8.565C77.1867 8.533 77.4907 8.517 77.7787 8.517C78.4721 8.517 79.0907 8.62367 79.6347 8.837C80.1787 9.03967 80.6374 9.333 81.0107 9.717C81.3841 10.0903 81.6667 10.549 81.8587 11.093C82.0614 11.637 82.1627 12.245 82.1627 12.917ZM87.355 17.285C86.6617 17.2743 86.0963 17.1997 85.659 17.061C85.2323 16.9223 84.891 16.7303 84.635 16.485C84.3897 16.229 84.219 15.925 84.123 15.573C84.0377 15.2103 83.995 14.805 83.995 14.357V5.093L86.379 4.709V13.877C86.379 14.0903 86.395 14.2823 86.427 14.453C86.459 14.6237 86.5177 14.7677 86.603 14.885C86.699 15.0023 86.8323 15.0983 87.003 15.173C87.1737 15.2477 87.403 15.2957 87.691 15.317L87.355 17.285ZM88.6575 12.981C88.6575 12.2343 88.7695 11.5837 88.9935 11.029C89.2282 10.4637 89.5322 9.99433 89.9055 9.621C90.2788 9.24767 90.7055 8.965 91.1855 8.773C91.6762 8.581 92.1775 8.485 92.6895 8.485C93.8842 8.485 94.8282 8.853 95.5215 9.589C96.2148 10.3143 96.5615 11.3863 96.5615 12.805C96.5615 12.9437 96.5562 13.0983 96.5455 13.269C96.5348 13.429 96.5242 13.573 96.5135 13.701H91.1055C91.1588 14.1917 91.3882 14.581 91.7935 14.869C92.1988 15.157 92.7428 15.301 93.4255 15.301C93.8628 15.301 94.2895 15.2637 94.7055 15.189C95.1322 15.1037 95.4788 15.0023 95.7455 14.885L96.0655 16.821C95.9375 16.885 95.7668 16.949 95.5535 17.013C95.3402 17.077 95.1002 17.1303 94.8335 17.173C94.5775 17.2263 94.3002 17.269 94.0015 17.301C93.7028 17.333 93.4042 17.349 93.1055 17.349C92.3482 17.349 91.6868 17.237 91.1215 17.013C90.5668 16.789 90.1028 16.485 89.7295 16.101C89.3668 15.7063 89.0948 15.2423 88.9135 14.709C88.7428 14.1757 88.6575 13.5997 88.6575 12.981ZM94.2575 12.069C94.2468 11.8663 94.2095 11.669 94.1455 11.477C94.0922 11.285 94.0015 11.1143 93.8735 10.965C93.7562 10.8157 93.6015 10.693 93.4095 10.597C93.2282 10.501 92.9988 10.453 92.7215 10.453C92.4548 10.453 92.2255 10.501 92.0335 10.597C91.8415 10.6823 91.6815 10.7997 91.5535 10.949C91.4255 11.0983 91.3242 11.2743 91.2495 11.477C91.1855 11.669 91.1375 11.8663 91.1055 12.069H94.2575ZM61.438 40.125C61.24 39.477 61.015 38.811 60.763 38.127C60.529 37.443 60.295 36.759 60.061 36.075H52.771C52.537 36.759 52.294 37.443 52.042 38.127C51.808 38.811 51.592 39.477 51.394 40.125H47.02C47.722 38.109 48.388 36.246 49.018 34.536C49.648 32.826 50.26 31.215 50.854 29.703C51.466 28.191 52.06 26.76 52.636 25.41C53.23 24.042 53.842 22.71 54.472 21.414H58.495C59.107 22.71 59.71 24.042 60.304 25.41C60.898 26.76 61.492 28.191 62.086 29.703C62.698 31.215 63.319 32.826 63.949 34.536C64.579 36.246 65.245 38.109 65.947 40.125H61.438ZM56.389 25.653C56.299 25.923 56.164 26.292 55.984 26.76C55.804 27.228 55.597 27.768 55.363 28.38C55.129 28.992 54.868 29.667 54.58 30.405C54.31 31.143 54.031 31.917 53.743 32.727H59.062C58.774 31.917 58.495 31.143 58.225 30.405C57.955 29.667 57.694 28.992 57.442 28.38C57.208 27.768 57.001 27.228 56.821 26.76C56.641 26.292 56.497 25.923 56.389 25.653ZM67.1339 33.024C67.1339 31.998 67.2959 31.035 67.6199 30.135C67.9619 29.217 68.4479 28.425 69.0779 27.759C69.7079 27.075 70.4729 26.535 71.3729 26.139C72.2729 25.743 73.2989 25.545 74.4509 25.545C75.2069 25.545 75.8999 25.617 76.5299 25.761C77.1599 25.887 77.7719 26.076 78.3659 26.328L77.5289 29.541C77.1509 29.397 76.7369 29.271 76.2869 29.163C75.8369 29.055 75.3329 29.001 74.7749 29.001C73.5869 29.001 72.6959 29.37 72.1019 30.108C71.5259 30.846 71.2379 31.818 71.2379 33.024C71.2379 34.302 71.5079 35.292 72.0479 35.994C72.6059 36.696 73.5689 37.047 74.9369 37.047C75.4229 37.047 75.9449 37.002 76.5029 36.912C77.0609 36.822 77.5739 36.678 78.0419 36.48L78.6089 39.774C78.1409 39.972 77.5559 40.143 76.8539 40.287C76.1519 40.431 75.3779 40.503 74.5319 40.503C73.2359 40.503 72.1199 40.314 71.1839 39.936C70.2479 39.54 69.4739 39.009 68.8619 38.343C68.2679 37.677 67.8269 36.894 67.5389 35.994C67.2689 35.076 67.1339 34.086 67.1339 33.024ZM86.0504 37.317C86.4464 37.317 86.8244 37.308 87.1844 37.29C87.5444 37.272 87.8324 37.245 88.0484 37.209V34.158C87.8864 34.122 87.6434 34.086 87.3194 34.05C86.9954 34.014 86.6984 33.996 86.4284 33.996C86.0504 33.996 85.6904 34.023 85.3484 34.077C85.0244 34.113 84.7364 34.194 84.4844 34.32C84.2324 34.446 84.0344 34.617 83.8904 34.833C83.7464 35.049 83.6744 35.319 83.6744 35.643C83.6744 36.273 83.8814 36.714 84.2954 36.966C84.7274 37.2 85.3124 37.317 86.0504 37.317ZM85.7264 25.545C86.9144 25.545 87.9044 25.68 88.6964 25.95C89.4884 26.22 90.1184 26.607 90.5864 27.111C91.0724 27.615 91.4144 28.227 91.6124 28.947C91.8104 29.667 91.9094 30.468 91.9094 31.35V39.72C91.3334 39.846 90.5324 39.99 89.5064 40.152C88.4804 40.332 87.2384 40.422 85.7804 40.422C84.8624 40.422 84.0254 40.341 83.2694 40.179C82.5314 40.017 81.8924 39.756 81.3524 39.396C80.8124 39.018 80.3984 38.532 80.1104 37.938C79.8224 37.344 79.6784 36.615 79.6784 35.751C79.6784 34.923 79.8404 34.221 80.1644 33.645C80.5064 33.069 80.9564 32.61 81.5144 32.268C82.0724 31.926 82.7114 31.683 83.4314 31.539C84.1514 31.377 84.8984 31.296 85.6724 31.296C86.1944 31.296 86.6534 31.323 87.0494 31.377C87.4634 31.413 87.7964 31.467 88.0484 31.539V31.161C88.0484 30.477 87.8414 29.928 87.4274 29.514C87.0134 29.1 86.2934 28.893 85.2674 28.893C84.5834 28.893 83.9084 28.947 83.2424 29.055C82.5764 29.145 82.0004 29.28 81.5144 29.46L81.0014 26.22C81.2354 26.148 81.5234 26.076 81.8654 26.004C82.2254 25.914 82.6124 25.842 83.0264 25.788C83.4404 25.716 83.8724 25.662 84.3224 25.626C84.7904 25.572 85.2584 25.545 85.7264 25.545ZM98.9762 32.916C98.9762 34.158 99.2552 35.157 99.8132 35.913C100.371 36.669 101.199 37.047 102.297 37.047C102.657 37.047 102.99 37.038 103.296 37.02C103.602 36.984 103.854 36.948 104.052 36.912V29.595C103.8 29.433 103.467 29.298 103.053 29.19C102.657 29.082 102.252 29.028 101.838 29.028C99.9302 29.028 98.9762 30.324 98.9762 32.916ZM108.075 39.666C107.715 39.774 107.301 39.882 106.833 39.99C106.365 40.08 105.87 40.161 105.348 40.233C104.844 40.305 104.322 40.359 103.782 40.395C103.26 40.449 102.756 40.476 102.27 40.476C101.1 40.476 100.056 40.305 99.1382 39.963C98.2202 39.621 97.4462 39.135 96.8162 38.505C96.1862 37.857 95.7002 37.083 95.3582 36.183C95.0342 35.265 94.8722 34.239 94.8722 33.105C94.8722 31.953 95.0162 30.918 95.3042 30C95.5922 29.064 96.0062 28.272 96.5462 27.624C97.0862 26.976 97.7432 26.481 98.5172 26.139C99.3092 25.797 100.209 25.626 101.217 25.626C101.775 25.626 102.27 25.68 102.702 25.788C103.152 25.896 103.602 26.049 104.052 26.247V19.821L108.075 19.173V39.666ZM111.167 33.132C111.167 31.872 111.356 30.774 111.734 29.838C112.13 28.884 112.643 28.092 113.273 27.462C113.903 26.832 114.623 26.355 115.433 26.031C116.261 25.707 117.107 25.545 117.971 25.545C119.987 25.545 121.58 26.166 122.75 27.408C123.92 28.632 124.505 30.441 124.505 32.835C124.505 33.069 124.496 33.33 124.478 33.618C124.46 33.888 124.442 34.131 124.424 34.347H115.298C115.388 35.175 115.775 35.832 116.459 36.318C117.143 36.804 118.061 37.047 119.213 37.047C119.951 37.047 120.671 36.984 121.373 36.858C122.093 36.714 122.678 36.543 123.128 36.345L123.668 39.612C123.452 39.72 123.164 39.828 122.804 39.936C122.444 40.044 122.039 40.134 121.589 40.206C121.157 40.296 120.689 40.368 120.185 40.422C119.681 40.476 119.177 40.503 118.673 40.503C117.395 40.503 116.279 40.314 115.325 39.936C114.389 39.558 113.606 39.045 112.976 38.397C112.364 37.731 111.905 36.948 111.599 36.048C111.311 35.148 111.167 34.176 111.167 33.132ZM120.617 31.593C120.599 31.251 120.536 30.918 120.428 30.594C120.338 30.27 120.185 29.982 119.969 29.73C119.771 29.478 119.51 29.271 119.186 29.109C118.88 28.947 118.493 28.866 118.025 28.866C117.575 28.866 117.188 28.947 116.864 29.109C116.54 29.253 116.27 29.451 116.054 29.703C115.838 29.955 115.667 30.252 115.541 30.594C115.433 30.918 115.352 31.251 115.298 31.593H120.617ZM135.413 32.592C135.413 31.296 135.242 30.378 134.9 29.838C134.576 29.298 134.009 29.028 133.199 29.028C132.947 29.028 132.686 29.046 132.416 29.082C132.146 29.1 131.885 29.127 131.633 29.163V40.125H127.61V26.409C127.952 26.319 128.348 26.229 128.798 26.139C129.266 26.031 129.752 25.941 130.256 25.869C130.778 25.779 131.309 25.716 131.849 25.68C132.389 25.626 132.92 25.599 133.442 25.599C134.468 25.599 135.296 25.734 135.926 26.004C136.574 26.256 137.105 26.562 137.519 26.922C138.095 26.508 138.752 26.184 139.49 25.95C140.246 25.716 140.939 25.599 141.569 25.599C142.703 25.599 143.63 25.761 144.35 26.085C145.088 26.391 145.673 26.832 146.105 27.408C146.537 27.984 146.834 28.668 146.996 29.46C147.158 30.252 147.239 31.134 147.239 32.106V40.125H143.216V32.592C143.216 31.296 143.045 30.378 142.703 29.838C142.379 29.298 141.812 29.028 141.002 29.028C140.786 29.028 140.48 29.082 140.084 29.19C139.706 29.298 139.391 29.433 139.139 29.595C139.265 30.009 139.346 30.45 139.382 30.918C139.418 31.368 139.436 31.854 139.436 32.376V40.125H135.413V32.592ZM163.079 25.923C162.269 28.659 161.423 31.224 160.541 33.618C159.659 36.012 158.696 38.334 157.652 40.584C157.274 41.394 156.896 42.078 156.518 42.636C156.14 43.212 155.726 43.68 155.276 44.04C154.826 44.418 154.313 44.688 153.737 44.85C153.179 45.03 152.522 45.12 151.766 45.12C151.136 45.12 150.551 45.057 150.011 44.931C149.489 44.823 149.057 44.697 148.715 44.553L149.417 41.34C149.831 41.484 150.2 41.583 150.524 41.637C150.848 41.691 151.19 41.718 151.55 41.718C152.27 41.718 152.819 41.52 153.197 41.124C153.593 40.746 153.926 40.215 154.196 39.531C153.278 37.731 152.36 35.715 151.442 33.483C150.524 31.233 149.66 28.713 148.85 25.923H153.116C153.296 26.625 153.503 27.39 153.737 28.218C153.989 29.028 154.25 29.856 154.52 30.702C154.79 31.53 155.06 32.34 155.33 33.132C155.618 33.924 155.888 34.644 156.14 35.292C156.374 34.644 156.617 33.924 156.869 33.132C157.121 32.34 157.364 31.53 157.598 30.702C157.85 29.856 158.084 29.028 158.3 28.218C158.534 27.39 158.741 26.625 158.921 25.923H163.079Z" fill="#2C2C2C"/>
</svg>
